<svg xmlns="http://www.w3.org/2000/svg" width="77" height="76" viewBox="0 0 77 76" fill="none">
<path d="M67.5953 29.6844C67.8799 30.4769 67.915 31.191 67.7068 32.162C67.5421 32.9469 67.2811 33.6012 66.8389 34.355C64.1779 38.8659 57.2592 42.4 51.7563 42.0475C51.0065 42.0003 49.9172 41.781 49.2952 41.5518C47.2503 40.8044 46.1311 39.2008 46.2822 37.2376C46.4408 35.2227 47.8306 33.0137 50.2301 30.9644C50.8502 30.4404 52.9339 29.0691 53.6799 28.7035C56.7928 27.1693 59.7455 26.4815 62.4275 26.6588C63.0956 26.7062 64.2012 26.9326 64.788 27.1436C65.3314 27.3418 66.1854 27.8303 66.5365 28.147C66.8527 28.4279 67.4615 29.3148 67.5953 29.6844Z" fill="#F8CA74"/>
<path d="M56.2785 14.0162C56.8564 15.4611 56.7419 17.4357 55.9669 19.5102C54.9726 22.1768 53.0612 24.7818 50.5006 26.9528C49.6848 27.6443 47.6896 28.9174 46.8015 29.3165C44.7719 30.22 42.9645 30.5178 41.4545 30.1905C40.1536 29.9151 39.1466 29.163 38.6154 28.0797C37.3627 25.4924 38.4484 21.4391 41.384 17.7506C43.8193 14.6898 47.0249 12.4583 50.078 11.6996C53.056 10.9603 55.4164 11.8428 56.2785 14.0162Z" fill="#F8CA05"/>
<path d="M60.0268 49.3175C60.8496 51.1771 60.3106 53.327 58.5209 55.2976C57.4907 56.4261 55.809 57.5782 54.1389 58.2961C50.2531 59.9735 45.721 60.028 42.9238 58.4339C41.4941 57.6161 40.5907 56.4636 40.3476 55.1296C39.988 53.1634 40.9948 51.0676 43.2236 49.1521C43.6716 48.7688 45.1269 47.8273 45.7412 47.5294C50.6312 45.1263 56.4289 45.3467 59.1062 48.03C59.4219 48.3463 59.8721 48.979 60.0268 49.3175Z" fill="#F8CA05"/>
<path d="M34.0842 16.5372C34.7269 18.2268 34.6253 20.3569 33.7905 22.6103C32.8823 25.0575 31.1608 27.4226 29.0174 29.1718C28.4581 29.6271 27.1556 30.4522 26.5263 30.754C22.2925 32.7793 18.6991 31.3378 18.1731 27.4148C17.893 25.3094 18.5197 22.8338 19.9352 20.4386C22.6129 15.8993 27.3337 13.0268 30.8739 13.7894C32.3676 14.1096 33.5468 15.1188 34.0842 16.5372Z" fill="#F8CA05"/>
<path d="M38.3378 39.1952C39.6169 42.2392 38.9785 47.5353 36.6314 53.3812C34.7908 57.9579 32.2343 61.9976 29.6738 64.3675C29.0585 64.9351 27.8296 65.7476 27.2862 65.9471C26.4389 66.2554 25.7683 66.2857 24.8956 66.0666C23.4448 65.6952 22.2244 64.9115 21.1318 63.6475C20.5662 62.99 19.6592 61.5065 19.1993 60.4882C18.5903 59.1219 18.1643 57.912 17.323 55.1288C16.5075 52.4399 16.2329 51.7169 15.7862 51.1169C15.2179 50.3559 14.6374 49.8835 12.7735 48.6564C11.4386 47.7772 10.7403 47.2582 10.2173 46.7661C8.27607 44.9224 7.7751 42.6382 8.6041 39.4177C8.8489 38.4582 9.03373 38.093 9.56632 37.497C9.87337 37.158 9.95049 37.0964 10.8204 36.5337C11.6078 36.0243 11.8385 35.8927 12.3453 35.6817C15.4099 34.3894 19.669 33.6869 24.1834 33.7315C29.5515 33.7853 34.1485 34.952 36.5286 36.8685C37.3947 37.5655 37.9487 38.2773 38.3378 39.1952Z" fill="#F8CA05"/>
<path d="M14.1362 36.6968V46.5378H11.739V42.4865H8.01006V46.5378H5.61288V36.6968H8.01006V40.5519H11.739V36.6968H14.1362ZM19.4274 46.65C18.6611 46.65 17.9695 46.4864 17.3527 46.1593C16.7452 45.8322 16.2639 45.365 15.9088 44.7575C15.563 44.15 15.3901 43.4397 15.3901 42.6267C15.3901 41.8229 15.5677 41.1173 15.9228 40.5098C16.2779 39.893 16.7639 39.4211 17.3807 39.094C17.9975 38.7669 18.6891 38.6033 19.4555 38.6033C20.2218 38.6033 20.9134 38.7669 21.5302 39.094C22.147 39.4211 22.633 39.893 22.9882 40.5098C23.3433 41.1173 23.5209 41.8229 23.5209 42.6267C23.5209 43.4304 23.3386 44.1407 22.9741 44.7575C22.619 45.365 22.1284 45.8322 21.5022 46.1593C20.8854 46.4864 20.1938 46.65 19.4274 46.65ZM19.4274 44.5752C19.8854 44.5752 20.2732 44.407 20.591 44.0706C20.9181 43.7341 21.0816 43.2528 21.0816 42.6267C21.0816 42.0005 20.9228 41.5192 20.605 41.1827C20.2966 40.8463 19.9134 40.6781 19.4555 40.6781C18.9882 40.6781 18.6003 40.8463 18.2919 41.1827C17.9835 41.5098 17.8293 41.9911 17.8293 42.6267C17.8293 43.2528 17.9788 43.7341 18.2779 44.0706C18.5863 44.407 18.9695 44.5752 19.4274 44.5752ZM29.1524 44.5051V46.5378H27.9328C27.0636 46.5378 26.3861 46.3276 25.9001 45.907C25.4141 45.4771 25.1711 44.7808 25.1711 43.8182V40.7061H24.2179V38.7155H25.1711V36.8089H27.5683V38.7155H29.1384V40.7061H27.5683V43.8463C27.5683 44.0799 27.6244 44.2481 27.7365 44.3509C27.8487 44.4537 28.0356 44.5051 28.2973 44.5051H29.1524ZM37.8615 42.5005C37.8615 42.7248 37.8474 42.9584 37.8194 43.2014H32.3942C32.4316 43.6874 32.5858 44.0612 32.8568 44.3229C33.1372 44.5752 33.4783 44.7014 33.8802 44.7014C34.4783 44.7014 34.8942 44.4491 35.1278 43.9444H37.6792C37.5484 44.4584 37.3101 44.921 36.9643 45.3322C36.6278 45.7435 36.2026 46.0659 35.6886 46.2995C35.1746 46.5332 34.5998 46.65 33.9643 46.65C33.1979 46.65 32.5157 46.4864 31.9176 46.1593C31.3194 45.8322 30.8522 45.365 30.5157 44.7575C30.1793 44.15 30.011 43.4397 30.011 42.6267C30.011 41.8136 30.1746 41.1033 30.5017 40.4958C30.8381 39.8884 31.3054 39.4211 31.9035 39.094C32.5017 38.7669 33.1886 38.6033 33.9643 38.6033C34.7213 38.6033 35.3942 38.7622 35.983 39.0799C36.5717 39.3977 37.0297 39.851 37.3568 40.4398C37.6932 41.0285 37.8615 41.7154 37.8615 42.5005ZM35.4082 41.8696C35.4082 41.4584 35.268 41.1313 34.9876 40.8883C34.7073 40.6454 34.3568 40.5239 33.9362 40.5239C33.5344 40.5239 33.1933 40.6407 32.9129 40.8743C32.6419 41.108 32.4736 41.4397 32.4082 41.8696H35.4082ZM41.5233 36.1641V46.5378H39.1261V36.1641H41.5233Z" fill="#fff"/>
<path d="M53.9286 38.1828C53.9286 38.9771 53.723 39.7061 53.3118 40.3697C52.9006 41.0332 52.3025 41.5753 51.5174 41.9958C50.7324 42.4164 49.7978 42.664 48.7137 42.7388L48.1109 46.1173C47.8773 47.4163 47.2418 48.0659 46.2044 48.0659C45.6343 48.0659 45.1063 47.8976 44.6203 47.5612C44.1436 47.2248 43.7605 46.7107 43.4708 46.0192C43.181 45.3276 43.0362 44.4771 43.0362 43.4678C43.0362 41.5706 43.3399 39.9631 43.9474 38.6454C44.5642 37.3183 45.3866 36.3276 46.4147 35.6734C47.452 35.0099 48.5922 34.6781 49.8352 34.6781C50.7137 34.6781 51.4567 34.8323 52.0642 35.1407C52.681 35.4491 53.1436 35.8697 53.452 36.4024C53.7697 36.9258 53.9286 37.5192 53.9286 38.1828ZM48.966 41.2949C50.8819 41.0519 51.8399 40.0566 51.8399 38.3089C51.8399 37.6921 51.6342 37.1921 51.223 36.8089C50.8212 36.4164 50.195 36.2202 49.3445 36.2202C48.3819 36.2202 47.5408 36.5239 46.8212 37.1314C46.1109 37.7388 45.5595 38.5846 45.167 39.6687C44.7838 40.7435 44.5922 41.9725 44.5922 43.3556C44.5922 43.9351 44.6483 44.4491 44.7605 44.8977C44.882 45.3463 45.0315 45.6967 45.2091 45.9491C45.396 46.192 45.5735 46.3135 45.7418 46.3135C45.9754 46.3135 46.153 45.9911 46.2745 45.3463L46.7371 42.6967C46.3726 42.6407 46.2137 42.6173 46.2605 42.6267C45.9801 42.5799 45.7978 42.4958 45.7137 42.3743C45.6296 42.2435 45.5876 42.0799 45.5876 41.8837C45.5876 41.6781 45.6436 41.5145 45.7558 41.393C45.8773 41.2715 46.0408 41.2108 46.2464 41.2108C46.3399 41.2108 46.41 41.2154 46.4567 41.2248C46.681 41.2622 46.8539 41.2855 46.9754 41.2949C47.0969 40.5659 47.2698 39.5893 47.4941 38.365C47.5502 38.0472 47.6763 37.8229 47.8726 37.6921C48.0782 37.5519 48.3165 37.4818 48.5875 37.4818C48.8959 37.4818 49.1156 37.5426 49.2464 37.6641C49.3866 37.7762 49.4567 37.9585 49.4567 38.2108C49.4567 38.3603 49.4473 38.4818 49.4287 38.5753L48.966 41.2949ZM59.8989 43.4117C60.0204 43.4117 60.1139 43.4678 60.1793 43.5799C60.254 43.6921 60.2914 43.8463 60.2914 44.0425C60.2914 44.4164 60.2026 44.7061 60.0251 44.9117C59.6793 45.3322 59.1886 45.7201 58.5531 46.0752C57.927 46.4304 57.2541 46.6079 56.5344 46.6079C55.5531 46.6079 54.7915 46.3416 54.2494 45.8089C53.7074 45.2762 53.4363 44.5472 53.4363 43.622C53.4363 42.9771 53.5718 42.379 53.8429 41.8276C54.1139 41.2668 54.4877 40.8229 54.9644 40.4958C55.4503 40.1687 55.9971 40.0052 56.6045 40.0052C57.1466 40.0052 57.5812 40.1687 57.9083 40.4958C58.2354 40.8136 58.3989 41.2482 58.3989 41.7996C58.3989 42.4444 58.1653 43.0005 57.698 43.4678C57.24 43.9257 56.4597 44.2902 55.3569 44.5612C55.5905 44.9911 56.0344 45.2061 56.6886 45.2061C57.1092 45.2061 57.5858 45.0612 58.1185 44.7715C58.6606 44.4724 59.1279 44.0846 59.5204 43.608C59.6325 43.4771 59.7587 43.4117 59.8989 43.4117ZM56.3662 41.379C56.0204 41.379 55.726 41.5799 55.483 41.9818C55.2494 42.3837 55.1326 42.8696 55.1326 43.4397V43.4678C55.684 43.3369 56.1186 43.1407 56.4363 42.879C56.7541 42.6173 56.9129 42.3136 56.9129 41.9678C56.9129 41.7902 56.8615 41.65 56.7587 41.5472C56.6653 41.4351 56.5344 41.379 56.3662 41.379ZM61.4631 41.3369C61.4444 41.8042 61.435 42.1687 61.435 42.4304C61.435 43.1033 61.4677 43.6313 61.5332 44.0145C61.6079 44.3883 61.7247 44.6594 61.8836 44.8276C62.0518 44.9865 62.2808 45.0659 62.5705 45.0659C62.7201 45.0659 62.8976 45.0192 63.1032 44.9257C63.3089 44.8322 63.4958 44.7108 63.664 44.5612C63.7668 44.4678 63.8696 44.421 63.9724 44.421C64.0845 44.421 64.1733 44.4865 64.2388 44.6173C64.3135 44.7388 64.3509 44.8883 64.3509 45.0659C64.3509 45.2435 64.3135 45.4164 64.2388 45.5846C64.1733 45.7528 64.0705 45.893 63.9303 46.0051C63.4444 46.407 62.893 46.6079 62.2761 46.6079C61.3883 46.6079 60.7388 46.2388 60.3276 45.5005C59.9164 44.7528 59.7107 43.7809 59.7107 42.5846C59.7107 42.1734 59.7248 41.7575 59.7528 41.3369H59.2061C58.9257 41.3369 58.7341 41.2855 58.6313 41.1827C58.5379 41.0799 58.4911 40.9164 58.4911 40.6921C58.4911 40.1687 58.7014 39.907 59.122 39.907H59.921C60.0799 38.879 60.3229 37.9398 60.65 37.0893C60.9771 36.2388 61.3696 35.5613 61.8276 35.0566C62.2948 34.5519 62.7948 34.2996 63.3275 34.2996C63.7201 34.2996 64.0285 34.4725 64.2528 34.8183C64.4771 35.1641 64.5892 35.5987 64.5892 36.122C64.5892 37.5706 63.9817 38.8323 62.7668 39.907H64.3369C64.4864 39.907 64.5939 39.9398 64.6593 40.0052C64.7247 40.0706 64.7574 40.1921 64.7574 40.3697C64.7574 41.0145 64.2294 41.3369 63.1733 41.3369H61.4631ZM62.949 35.6454C62.8089 35.6454 62.65 35.823 62.4724 36.1781C62.3042 36.5239 62.1406 37.0099 61.9818 37.636C61.8322 38.2529 61.7061 38.9398 61.6033 39.6968C62.1547 39.2201 62.5659 38.6874 62.8369 38.0986C63.1173 37.5005 63.2574 36.9585 63.2574 36.4725C63.2574 35.9211 63.1546 35.6454 62.949 35.6454Z" fill="#354FD8"/>
</svg>